# xmcd
#
# Track frame offsets:
#	150
#	14520
#	29559
#	40973
#	52157
#	66116
#	81038
#	93437
#	105001
#	117481
#	128670
#	141447
# Disc length: 2087 seconds
# Revision: 1
# Processed by: cddbd v1.5.1PL2 Copyright (c) Steve Scherf et al.
#
# Submitted via: libkcddb 0.21
#
DISCID=a308250c
DTITLE=Nat King Cole - Early Morning Blues
DYEAR=2005
DGENRE=Unknown
TTITLE0=Slow Down
TTITLE1=Call The Police
TTITLE2=I Know That You Know
TTITLE3=Babs
TTITLE4=Come To Daddy, Do!
TTITLE5=The Frim Fram Sauce
TTITLE6=Let's Spring One
TTITLE7=Scotchin' With The Soda
TTITLE8=Early Morning Blues
TTITLE9=Beautifull Moons Ago
TTITLE10=This Side Up
TTITLE11=I'm Lost
EXTD=
EXTT0=
EXTT1=
EXTT2=
EXTT3=
EXTT4=
EXTT5=
EXTT6=
EXTT7=
EXTT8=
EXTT9=
EXTT10=
EXTT11=
PLAYORDER=
